<mxfile host="Electron" modified="2024-01-12T13:37:01.645Z" agent="Mozilla/5.0 (X11; Linux x86_64) AppleWebKit/537.36 (KHTML, like Gecko) draw.io/21.6.1 Chrome/112.0.5615.204 Electron/24.8.8 Safari/537.36" etag="x-WEeG3dil0lT9JUG_v7" version="21.6.1" type="device">
  <diagram name="Page-1" id="TwwASkYQw_o2mfFkBZpU">
    <mxGraphModel dx="2074" dy="1239" grid="1" gridSize="10" guides="1" tooltips="1" connect="1" arrows="1" fold="1" page="1" pageScale="1" pageWidth="827" pageHeight="1169" math="0" shadow="0">
      <root>
        <mxCell id="0" />
        <mxCell id="1" parent="0" />
        <mxCell id="lA0t_ucqhgZEw0L7p7DQ-1" value="" style="ellipse;whiteSpace=wrap;html=1;aspect=fixed;" vertex="1" parent="1">
          <mxGeometry x="240" y="440" width="80" height="80" as="geometry" />
        </mxCell>
        <mxCell id="lA0t_ucqhgZEw0L7p7DQ-29" value="" style="edgeStyle=orthogonalEdgeStyle;rounded=0;orthogonalLoop=1;jettySize=auto;html=1;strokeWidth=2;fillColor=#f8cecc;strokeColor=#b85450;" edge="1" parent="1" source="lA0t_ucqhgZEw0L7p7DQ-2" target="lA0t_ucqhgZEw0L7p7DQ-15">
          <mxGeometry relative="1" as="geometry" />
        </mxCell>
        <mxCell id="lA0t_ucqhgZEw0L7p7DQ-2" value="" style="ellipse;whiteSpace=wrap;html=1;aspect=fixed;" vertex="1" parent="1">
          <mxGeometry x="120" y="440" width="80" height="80" as="geometry" />
        </mxCell>
        <mxCell id="lA0t_ucqhgZEw0L7p7DQ-31" value="" style="edgeStyle=orthogonalEdgeStyle;rounded=0;orthogonalLoop=1;jettySize=auto;html=1;strokeWidth=2;fillColor=#f8cecc;strokeColor=#b85450;" edge="1" parent="1" source="lA0t_ucqhgZEw0L7p7DQ-3" target="lA0t_ucqhgZEw0L7p7DQ-4">
          <mxGeometry relative="1" as="geometry" />
        </mxCell>
        <mxCell id="lA0t_ucqhgZEw0L7p7DQ-3" value="" style="ellipse;whiteSpace=wrap;html=1;aspect=fixed;" vertex="1" parent="1">
          <mxGeometry x="240" y="560" width="80" height="80" as="geometry" />
        </mxCell>
        <mxCell id="lA0t_ucqhgZEw0L7p7DQ-24" value="" style="edgeStyle=orthogonalEdgeStyle;rounded=0;orthogonalLoop=1;jettySize=auto;html=1;entryX=0.5;entryY=0;entryDx=0;entryDy=0;fillColor=#dae8fc;strokeColor=#6c8ebf;strokeWidth=2;" edge="1" parent="1" source="lA0t_ucqhgZEw0L7p7DQ-4" target="lA0t_ucqhgZEw0L7p7DQ-6">
          <mxGeometry relative="1" as="geometry" />
        </mxCell>
        <mxCell id="lA0t_ucqhgZEw0L7p7DQ-28" value="" style="edgeStyle=orthogonalEdgeStyle;rounded=0;orthogonalLoop=1;jettySize=auto;html=1;entryX=0.5;entryY=1;entryDx=0;entryDy=0;strokeWidth=2;fillColor=#d5e8d4;strokeColor=#82b366;" edge="1" parent="1" source="lA0t_ucqhgZEw0L7p7DQ-4" target="lA0t_ucqhgZEw0L7p7DQ-5">
          <mxGeometry relative="1" as="geometry" />
        </mxCell>
        <mxCell id="lA0t_ucqhgZEw0L7p7DQ-33" value="" style="edgeStyle=orthogonalEdgeStyle;rounded=0;orthogonalLoop=1;jettySize=auto;html=1;strokeWidth=2;fillColor=#f8cecc;strokeColor=#b85450;" edge="1" parent="1" source="lA0t_ucqhgZEw0L7p7DQ-4" target="lA0t_ucqhgZEw0L7p7DQ-7">
          <mxGeometry relative="1" as="geometry" />
        </mxCell>
        <mxCell id="lA0t_ucqhgZEw0L7p7DQ-4" value="" style="ellipse;whiteSpace=wrap;html=1;aspect=fixed;" vertex="1" parent="1">
          <mxGeometry x="360" y="560" width="80" height="80" as="geometry" />
        </mxCell>
        <mxCell id="lA0t_ucqhgZEw0L7p7DQ-5" value="" style="ellipse;whiteSpace=wrap;html=1;aspect=fixed;" vertex="1" parent="1">
          <mxGeometry x="360" y="440" width="80" height="80" as="geometry" />
        </mxCell>
        <mxCell id="lA0t_ucqhgZEw0L7p7DQ-6" value="" style="ellipse;whiteSpace=wrap;html=1;aspect=fixed;" vertex="1" parent="1">
          <mxGeometry x="360" y="680" width="80" height="80" as="geometry" />
        </mxCell>
        <mxCell id="lA0t_ucqhgZEw0L7p7DQ-23" value="" style="edgeStyle=orthogonalEdgeStyle;rounded=0;orthogonalLoop=1;jettySize=auto;html=1;strokeWidth=2;fillColor=#d5e8d4;strokeColor=#82b366;" edge="1" parent="1" source="lA0t_ucqhgZEw0L7p7DQ-7" target="lA0t_ucqhgZEw0L7p7DQ-4">
          <mxGeometry relative="1" as="geometry">
            <Array as="points">
              <mxPoint x="460" y="610" />
              <mxPoint x="460" y="610" />
            </Array>
          </mxGeometry>
        </mxCell>
        <mxCell id="lA0t_ucqhgZEw0L7p7DQ-27" value="" style="edgeStyle=orthogonalEdgeStyle;rounded=0;orthogonalLoop=1;jettySize=auto;html=1;fillColor=#dae8fc;strokeColor=#6c8ebf;strokeWidth=2;" edge="1" parent="1" source="lA0t_ucqhgZEw0L7p7DQ-7" target="lA0t_ucqhgZEw0L7p7DQ-4">
          <mxGeometry relative="1" as="geometry">
            <Array as="points">
              <mxPoint x="470" y="590" />
              <mxPoint x="470" y="590" />
            </Array>
          </mxGeometry>
        </mxCell>
        <mxCell id="lA0t_ucqhgZEw0L7p7DQ-34" value="" style="edgeStyle=orthogonalEdgeStyle;rounded=0;orthogonalLoop=1;jettySize=auto;html=1;strokeWidth=2;fillColor=#f8cecc;strokeColor=#b85450;" edge="1" parent="1" source="lA0t_ucqhgZEw0L7p7DQ-7" target="lA0t_ucqhgZEw0L7p7DQ-9">
          <mxGeometry relative="1" as="geometry">
            <Array as="points">
              <mxPoint x="510" y="660" />
              <mxPoint x="510" y="660" />
            </Array>
          </mxGeometry>
        </mxCell>
        <mxCell id="lA0t_ucqhgZEw0L7p7DQ-7" value="" style="ellipse;whiteSpace=wrap;html=1;aspect=fixed;" vertex="1" parent="1">
          <mxGeometry x="480" y="560" width="80" height="80" as="geometry" />
        </mxCell>
        <mxCell id="lA0t_ucqhgZEw0L7p7DQ-22" value="" style="edgeStyle=orthogonalEdgeStyle;rounded=0;orthogonalLoop=1;jettySize=auto;html=1;fillColor=#dae8fc;strokeColor=#6c8ebf;strokeWidth=2;" edge="1" parent="1" source="lA0t_ucqhgZEw0L7p7DQ-8" target="lA0t_ucqhgZEw0L7p7DQ-7">
          <mxGeometry relative="1" as="geometry" />
        </mxCell>
        <mxCell id="lA0t_ucqhgZEw0L7p7DQ-8" value="" style="ellipse;whiteSpace=wrap;html=1;aspect=fixed;" vertex="1" parent="1">
          <mxGeometry x="600" y="560" width="80" height="80" as="geometry" />
        </mxCell>
        <mxCell id="lA0t_ucqhgZEw0L7p7DQ-26" value="" style="edgeStyle=orthogonalEdgeStyle;rounded=0;orthogonalLoop=1;jettySize=auto;html=1;strokeWidth=2;fillColor=#d5e8d4;strokeColor=#82b366;" edge="1" parent="1" source="lA0t_ucqhgZEw0L7p7DQ-9" target="lA0t_ucqhgZEw0L7p7DQ-7">
          <mxGeometry relative="1" as="geometry">
            <Array as="points">
              <mxPoint x="530" y="660" />
              <mxPoint x="530" y="660" />
            </Array>
          </mxGeometry>
        </mxCell>
        <mxCell id="lA0t_ucqhgZEw0L7p7DQ-35" value="" style="edgeStyle=orthogonalEdgeStyle;rounded=0;orthogonalLoop=1;jettySize=auto;html=1;entryX=0;entryY=0.5;entryDx=0;entryDy=0;strokeWidth=2;fillColor=#f8cecc;strokeColor=#b85450;" edge="1" parent="1" source="lA0t_ucqhgZEw0L7p7DQ-9" target="lA0t_ucqhgZEw0L7p7DQ-10">
          <mxGeometry relative="1" as="geometry" />
        </mxCell>
        <mxCell id="lA0t_ucqhgZEw0L7p7DQ-9" value="" style="ellipse;whiteSpace=wrap;html=1;aspect=fixed;" vertex="1" parent="1">
          <mxGeometry x="480" y="680" width="80" height="80" as="geometry" />
        </mxCell>
        <mxCell id="lA0t_ucqhgZEw0L7p7DQ-25" value="" style="edgeStyle=orthogonalEdgeStyle;rounded=0;orthogonalLoop=1;jettySize=auto;html=1;" edge="1" parent="1" source="lA0t_ucqhgZEw0L7p7DQ-10" target="lA0t_ucqhgZEw0L7p7DQ-9">
          <mxGeometry relative="1" as="geometry">
            <Array as="points">
              <mxPoint x="580" y="730" />
              <mxPoint x="580" y="730" />
            </Array>
          </mxGeometry>
        </mxCell>
        <mxCell id="lA0t_ucqhgZEw0L7p7DQ-36" value="" style="edgeStyle=orthogonalEdgeStyle;rounded=0;orthogonalLoop=1;jettySize=auto;html=1;entryX=0;entryY=0.5;entryDx=0;entryDy=0;strokeWidth=2;fillColor=#f8cecc;strokeColor=#b85450;" edge="1" parent="1" source="lA0t_ucqhgZEw0L7p7DQ-10" target="lA0t_ucqhgZEw0L7p7DQ-12">
          <mxGeometry relative="1" as="geometry" />
        </mxCell>
        <mxCell id="lA0t_ucqhgZEw0L7p7DQ-10" value="" style="ellipse;whiteSpace=wrap;html=1;aspect=fixed;" vertex="1" parent="1">
          <mxGeometry x="600" y="680" width="80" height="80" as="geometry" />
        </mxCell>
        <mxCell id="lA0t_ucqhgZEw0L7p7DQ-12" value="" style="ellipse;whiteSpace=wrap;html=1;aspect=fixed;" vertex="1" parent="1">
          <mxGeometry x="720" y="680" width="80" height="80" as="geometry" />
        </mxCell>
        <mxCell id="lA0t_ucqhgZEw0L7p7DQ-30" value="" style="edgeStyle=orthogonalEdgeStyle;rounded=0;orthogonalLoop=1;jettySize=auto;html=1;strokeWidth=2;fillColor=#f8cecc;strokeColor=#b85450;" edge="1" parent="1" source="lA0t_ucqhgZEw0L7p7DQ-15" target="lA0t_ucqhgZEw0L7p7DQ-3">
          <mxGeometry relative="1" as="geometry" />
        </mxCell>
        <mxCell id="lA0t_ucqhgZEw0L7p7DQ-15" value="" style="ellipse;whiteSpace=wrap;html=1;aspect=fixed;" vertex="1" parent="1">
          <mxGeometry x="120" y="560" width="80" height="80" as="geometry" />
        </mxCell>
        <mxCell id="lA0t_ucqhgZEw0L7p7DQ-16" value="" style="verticalLabelPosition=bottom;sketch=0;html=1;fillColor=#f8cecc;strokeColor=#b85450;verticalAlign=top;pointerEvents=1;align=center;shape=mxgraph.cisco_safe.people_places_things_icons.icon8;" vertex="1" parent="1">
          <mxGeometry x="180.5" y="410" width="19.5" height="50" as="geometry" />
        </mxCell>
        <mxCell id="lA0t_ucqhgZEw0L7p7DQ-17" value="" style="html=1;verticalLabelPosition=bottom;align=center;labelBackgroundColor=#ffffff;verticalAlign=top;strokeWidth=2;strokeColor=#b85450;shadow=0;dashed=0;shape=mxgraph.ios7.icons.flag;fillColor=#f8cecc;" vertex="1" parent="1">
          <mxGeometry x="780" y="670" width="30" height="30" as="geometry" />
        </mxCell>
        <mxCell id="lA0t_ucqhgZEw0L7p7DQ-18" value="" style="verticalLabelPosition=bottom;sketch=0;html=1;fillColor=#d5e8d4;strokeColor=#82b366;verticalAlign=top;pointerEvents=1;align=center;shape=mxgraph.cisco_safe.people_places_things_icons.icon8;" vertex="1" parent="1">
          <mxGeometry x="650" y="660" width="19.5" height="50" as="geometry" />
        </mxCell>
        <mxCell id="lA0t_ucqhgZEw0L7p7DQ-19" value="" style="html=1;verticalLabelPosition=bottom;align=center;labelBackgroundColor=#ffffff;verticalAlign=top;strokeWidth=2;strokeColor=#82b366;shadow=0;dashed=0;shape=mxgraph.ios7.icons.flag;fillColor=#d5e8d4;" vertex="1" parent="1">
          <mxGeometry x="420" y="430" width="30" height="30" as="geometry" />
        </mxCell>
        <mxCell id="lA0t_ucqhgZEw0L7p7DQ-20" value="" style="verticalLabelPosition=bottom;sketch=0;html=1;fillColor=#dae8fc;strokeColor=#6c8ebf;verticalAlign=top;pointerEvents=1;align=center;shape=mxgraph.cisco_safe.people_places_things_icons.icon8;" vertex="1" parent="1">
          <mxGeometry x="660.5" y="530" width="19.5" height="50" as="geometry" />
        </mxCell>
        <mxCell id="lA0t_ucqhgZEw0L7p7DQ-21" value="" style="html=1;verticalLabelPosition=bottom;align=center;labelBackgroundColor=#ffffff;verticalAlign=top;strokeWidth=2;strokeColor=#6c8ebf;shadow=0;dashed=0;shape=mxgraph.ios7.icons.flag;fillColor=#dae8fc;" vertex="1" parent="1">
          <mxGeometry x="420" y="670" width="30" height="30" as="geometry" />
        </mxCell>
      </root>
    </mxGraphModel>
  </diagram>
</mxfile>
